# xmcd
#
# Track frame offsets:
#	150
#	27752
#	60500
#	86681
#	117072
#	139661
#	174737
#	206018
#
# Disc length: 3095 seconds
#
# Revision: 1
# Processed by: cddbd v1.5.1PL0 Copyright (c) Steve Scherf et al.
# Submitted via: audiograbber 1.83.01
#
DISCID=660c1508
DTITLE=Various Artist - Nu Life - Extra Easy Grooves
DYEAR=2005
DGENRE=
TTITLE0=Spring Vibes
TTITLE1=Free Sa
TTITLE2=Outtatown
TTITLE3=Flute-a-Licious
TTITLE4=Echophlekz
TTITLE5=Rolling Thunder
TTITLE6=Freestyle
TTITLE7=Mod Max XR
EXTD=
EXTT0=
EXTT1=
EXTT2=
EXTT3=
EXTT4=
EXTT5=
EXTT6=
EXTT7=
PLAYORDER=
